. 
  
http://www.torrentday.com/        :     The Hottest Private Tracker On The Net!!!
 
http://www.torrentday.com          :     Once & For all ;)


               www . TorrentDay . Com 

(((((((((((((= Enjoy No RAR releases =))))))))))))))))))))


...................................NFO:....................................

.[img]http://img703.imageshack.us/img703/2225/33203018764759030181.jpg[/img]

The Fighter 2010 WebSCR XVID AC3 HQ Hive-CM8




[b]Thx Hive

CM8 Doing It Right The First Time :D

Source:
The Fighter 2010 HD 1280532 H 264 AAC 

Video: 720x304 @bitrate 1700 2pass
Audio: English AC3 2.0 Stereo @256
Sample: yes included

Encode:
added brightness,sharpness,chroma,rgb and denoise and cleaned the audio
looks like a dvdrip!
enjoy[/b]
 
http://www.imdb.com/title/tt0964517/


General
Complete name                    : The.Fighter.2010.WebSCR.XVID.AC3.HQ.Hive-CM8.avi
Format                           : AVI
Format/Info                      : Audio Video Interleave
File size                        : 1.59 GiB
Duration                         : 1h 55mn
Overall bit rate                 : 1 965 Kbps
Writing application              : Nandub v1.0rc2
Writing library                  : Nandub build 1853/release

Video
ID                               : 0
Format                           : MPEG-4 Visual
Format profile                   : Advanced Simple@L5
Format settings, BVOP            : Yes
Format settings, QPel            : Yes
Format settings, GMC             : No warppoints
Format settings, Matrix          : Default (H.263)
Muxing mode                      : Packed bitstream
Codec ID                         : XVID
Codec ID/Hint                    : XviD
Duration                         : 1h 55mn
Bit rate                         : 1 699 Kbps
Width                            : 720 pixels
Height                           : 304 pixels
Display aspect ratio             : 2.35:1
Frame rate                       : 23.976 fps
Color space                      : YUV
Chroma subsampling               : 4:2:0
Bit depth                        : 8 bits
Scan type                        : Progressive
Bits/(Pixel*Frame)               : 0.324
Stream size                      : 1.37 GiB (86%)
Writing library                  : XviD 1.2.1 (UTC 2008-12-04)

Audio
ID                               : 1
Format                           : AC-3
Format/Info                      : Audio Coding 3
Mode extension                   : CM (complete main)
Codec ID                         : 2000
Duration                         : 1h 55mn
Bit rate mode                    : Constant
Bit rate                         : 256 Kbps
Channel(s)                       : 2 channels
Channel positions                : Front: L R
Sampling rate                    : 48.0 KHz
Bit depth                        : 16 bits
Video delay                      : 38ms
Stream size                      : 212 MiB (13%)
Alignment                        : Split accross interleaves
Interleave, duration             : 42 ms (1.00 video frame)
Interleave, preload duration     : 500 ms




Mark Wahlberg ... Mickey Ward
Christian Bale ... Dicky Eklund
Amy Adams ... Charlene Fleming
Melissa Leo ... Alice Ward
Mickey O'Keefe ... Himself
Jack McGee ... George Ward
Melissa McMeekin ... 'Little Alice' Eklund
Bianca Hunter ... Cathy 'Pork' Eklund
Erica McDermott ... Cindy 'Tar' Ecklund
Jill Quigg ... Donna Eklund Jaynes
Dendrie Taylor ... Gail 'Red Dog' Eckland



A look at the early years of boxer "Irish" Micky Ward and his brother who helped 
train him before going pro in the mid 1980s.
The Fighter, is a drama about boxer "Irish" Micky Ward's unlikely road to the world 
light welterweight title. His Rocky-like rise was shepherded by half-brother Dicky, 
a boxer-turned-trainer who rebounded in life after nearly being KO'd by drugs and crime. 




[img]http://img573.imageshack.us/img573/7580/tttfttfftftftfff.png[/img]
[img]http://img266.imageshack.us/img266/2792/34615804.png[/img]
[img]http://img823.imageshack.us/img823/9643/ttff.png[/img]
[img]http://img9.imageshack.us/img9/1350/tttfff.png[/img]
[img]http://img87.imageshack.us/img87/2179/tttftfff.png[/img]
[img]http://img836.imageshack.us/img836/5250/tttftftfff.png[/img]
[img]http://img820.imageshack.us/img820/3858/tttftftftfff.png[/img]






Greetz

iNK,LUSi,,MAGNET,CLASSiFiED,THC,LEGi0N,IMAGiNE,ViSiON,WBZ,FLAWL3SS,NOVA
Rapeseed,D2U,SAFC,goldadvance,MEMORY100,KaN1vE,Unevano,Pinnz,Wayne,Mr Hive
and all P2P groups 
Great Work Guys :D